<?xml version="1.0" encoding="utf-8"?>
<!-- Generator: Adobe Illustrator 22.1.0, SVG Export Plug-In . SVG Version: 6.00 Build 0)  -->
<svg version="1.1" id="圖層_1" xmlns="http://www.w3.org/2000/svg" xmlns:xlink="http://www.w3.org/1999/xlink" x="0px" y="0px"
	 viewBox="0 0 16 16" style="enable-background:new 0 0 16 16;" xml:space="preserve">
<style type="text/css">
	.st0{fill:#B8FFFB;}
	.st1{filter:url(#Adobe_OpacityMaskFilter);}
	.st2{opacity:0.57;mask:url(#SVGID_1_);}
	.st3{fill:#0E6662;}
</style>
<g>
	<g>
		<path class="st0" d="M9.6,8.5l-8-8c-0.3-0.3-0.8-0.3-1.1,0s-0.3,0.8,0,1.1l2.3,2.3C2.6,4.1,2.5,4.4,2.5,4.6
			c-0.4,1.4-0.4,3.6,1,5.7c0.3,0.4,0.8,0.2,0.8-0.3V9.6c0-0.2,0.1-0.3,0.3-0.3c0.1,0,0.2,0.1,0.3,0.2l0.9,3.1c0,0.1,0.1,0.2,0.2,0.3
			c0.2,0.1,0.4,0.3,0.6,0.4c0.3,0.1,0.7-0.1,0.7-0.5v-1.2c0-0.2,0.1-0.3,0.3-0.3c0.1,0,0.2,0.1,0.3,0.2L8.7,14
			c0,0.1,0.2,0.3,0.3,0.3c2.3,0.9,4.7,1.3,6.2,1.5c0.3,0,0.6-0.1,0.8-0.3c0.2-0.2,0.3-0.5,0.3-0.8C16.1,12,15,6.9,12.2,4.1
			C9.7,1.6,6.9,1.6,5.2,2C5,2.1,4.8,2.4,5,2.6l5.1,5.1c0.2,0.2,0.2,0.5,0,0.7C9.9,8.6,9.8,8.6,9.6,8.5L9.6,8.5z"/>
	</g>
	<defs>
		<filter id="Adobe_OpacityMaskFilter" filterUnits="userSpaceOnUse" x="0.3" y="0.3" width="16" height="15.5">
			
				<feColorMatrix  type="matrix" values="-1 0 0 0 1  0 -1 0 0 1  0 0 -1 0 1  0 0 0 1 0" color-interpolation-filters="sRGB" result="source"/>
		</filter>
	</defs>
	<mask maskUnits="userSpaceOnUse" x="0.3" y="0.3" width="16" height="15.5" id="SVGID_1_">
		<g class="st1">
			<image style="overflow:visible;" width="21" height="20" xlink:href="27C9C81511B98003.jpg"  transform="matrix(1 0 0 1 -2 -2)">
			</image>
		</g>
	</mask>
	<g class="st2">
		<path class="st3" d="M9.6,8.5l-8-8c-0.3-0.3-0.8-0.3-1.1,0s-0.3,0.8,0,1.1l2.3,2.3C2.6,4.1,2.5,4.4,2.5,4.6
			c-0.4,1.4-0.4,3.6,1,5.7c0.3,0.4,0.8,0.2,0.8-0.3V9.6c0-0.2,0.1-0.3,0.3-0.3c0.1,0,0.2,0.1,0.3,0.2l0.9,3.1c0,0.1,0.1,0.2,0.2,0.3
			c0.2,0.1,0.4,0.3,0.6,0.4c0.3,0.1,0.7-0.1,0.7-0.5v-1.2c0-0.2,0.1-0.3,0.3-0.3c0.1,0,0.2,0.1,0.3,0.2L8.7,14
			c0,0.1,0.2,0.3,0.3,0.3c2.3,0.9,4.7,1.3,6.2,1.5c0.3,0,0.6-0.1,0.8-0.3c0.2-0.2,0.3-0.5,0.3-0.8C16.1,12,15,6.9,12.2,4.1
			C9.7,1.6,6.9,1.6,5.2,2C5,2.1,4.8,2.4,5,2.6l5.1,5.1c0.2,0.2,0.2,0.5,0,0.7C9.9,8.6,9.8,8.6,9.6,8.5L9.6,8.5z"/>
	</g>
</g>
</svg>
